Description

Poster: http://cdn.piczend.com/image/bunazsu3rmrwgf9iccxk9us2n.jpeg
Release date: 2012
Genre: Drama
Plot: A woman's idyllic life is shattered when her husband is killed in a senseless act of violence. As she prepares to take matters into her own hands, two unexpected encounters begin to change everything.
--------------------------------

Runtime: 1 h 32 min
Rating: 5.8/10
Votes: 255
Writer(s)/Director(s): Brent McCorkle/Brent McCorkle
Actors: Lynn Collins, Michael Ealy, Bruce McGill, Kwesi Boakye
Trailer: http://www.imdb.com/video/imdb/vi3846153497/

Screenshots:
 
http://cdn.piczend.com/image/airgpq594raffhnudps8sioub.jpeg
 
http://cdn.piczend.com/image/aze37dufuavawu5okatsoevuw.jpeg
 
http://cdn.piczend.com/image/umv8ww9m03j3nooozpbkkpvly.jpeg
 
http://cdn.piczend.com/image/ez20jpkvajixiuncehpiwuilv.jpeg


Mediainfo:
General
Complete name : 	Unconditional (2012) HDRip 400p [Zend]/Unconditional (2012) HDRip 400p [Zend].mp4
Format : 	MPEG-4
Format profile : 	Base Media
Codec ID : 	isom
File size : 	1.11 GiB
Duration : 	1h 37mn
Overall bit rate mode : 	Variable
Overall bit rate : 	1 626 Kbps
Writing application : 	Lavf53.21.1

Video
ID : 	1
Format : 	AVC
Format/Info : 	Advanced Video Codec
Format profile : 	Main@L3.0
Format settings, CABAC : 	Yes
Format settings, ReFrames : 	3 frames
Codec ID : 	avc1
Codec ID/Info : 	Advanced Video Coding
Duration : 	1h 37mn
Bit rate : 	1 500 Kbps
Width : 	720 pixels
Height : 	400 pixels
Display aspect ratio : 	16:9
Frame rate mode : 	Constant
Frame rate : 	23.976 fps
Color space : 	YUV
Chroma subsampling : 	4:2:0
Bit depth : 	8 bits
Scan type : 	Progressive
Bits/(Pixel*Frame) : 	0.217
Stream size : 	1.02 GiB (92%)
Writing library : 	x264 core 123 r2189 35cf912
Encoding settings : 	cabac=1 / ref=3 / deblock=1:0:0 / analyse=0x1:0x111 / me=hex / subme=7 / psy=1 / psy_rd=1.00:0.00 / mixed_ref=0 / me_range=16 / chroma_me=1 / trellis=1 / 8x8dct=0 / cqm=0 / deadzone=21,11 / fast_pskip=1 / chroma_qp_offset=-2 / threads=6 / sliced_threads=0 / nr=0 / decimate=1 / interlaced=0 / bluray_compat=0 / constrained_intra=0 / bframes=3 / b_pyramid=0 / b_adapt=1 / b_bias=0 / direct=1 / weightb=0 / open_gop=1 / weightp=2 / keyint=250 / keyint_min=23 / scenecut=40 / intra_refresh=0 / rc_lookahead=40 / rc=abr / mbtree=1 / bitrate=1500 / ratetol=1.0 / qcomp=0.60 / qpmin=0 / qpmax=69 / qpstep=4 / ip_ratio=1.25 / aq=1:1.00
Language : 	English

Audio
ID : 	2
Format : 	AAC
Format/Info : 	Advanced Audio Codec
Format profile : 	LC
Codec ID : 	40
Duration : 	1h 37mn
Bit rate mode : 	Variable
Bit rate : 	128 Kbps
Channel(s) : 	2 channels
Channel positions : 	Front: L R
Sampling rate : 	48.0 KHz
Compression mode : 	Lossy
Delay relative to video : 	42ms
Stream size : 	89.7 MiB (8%)
Language : 	English

Menu
00:00:00.000 : 	Chapter 1
00:07:46.008 : 	Chapter 2
00:16:22.065 : 	Chapter 3
00:25:15.015 : 	Chapter 4
00:33:00.022 : 	Chapter 5
00:40:43.026 : 	Chapter 6
00:48:47.010 : 	Chapter 7
00:58:00.063 : 	Chapter 8
01:06:22.024 : 	Chapter 9
01:16:05.023 : 	Chapter 10
01:22:11.056 : 	Chapter 11
01:32:45.065 : 	Chapter 12
